# xmcd
#
# Track frame offsets:
#	150
#	13676
#	24774
#	38074
#	55137
#	70999
#	89405
#	103015
#	117629
#	130313
#	154838
#	174714
#	192696
#	209392
#	223632
#	243365
#	259654
#	272894
#	289941
#	302978
#
# Disc length: 4237 seconds
#
# Revision: 2
# Processed by: cddbd v1.5.2PL0 Copyright (c) Steve Scherf et al.
# Submitted via: audiograbber 1.83.01
#
DISCID=32108b14
DTITLE=John Denver - COUNTRY ROADS
DYEAR=2009
DGENRE=
TTITLE0=Annie's Song
TTITLE1=Follow Me
TTITLE2=For Baby (For Bobby)
TTITLE3=I Want To Live
TTITLE4=I'm Sorry
TTITLE5=Poems, Prayers And Promises
TTITLE6=Annie's Other Song
TTITLE7=Everyday
TTITLE8=This Old Guitar
TTITLE9=Sweet Surrender
TTITLE10=My Sweet Lady
TTITLE11=Looking For Space
TTITLE12=Like A Sad Song
TTITLE13=How Can I Leave You Again
TTITLE14=What's On Your Mind
TTITLE15=Autograph
TTITLE16=Perphaps Love
TTITLE17=Seasons Of The Heart
TTITLE18=Love Again
TTITLE19=For You
EXTD=CD 1 Annie's Song
EXTT0=
EXTT1=
EXTT2=
EXTT3=
EXTT4=
EXTT5=
EXTT6=
EXTT7=
EXTT8=
EXTT9=
EXTT10=
EXTT11=
EXTT12=
EXTT13=
EXTT14=
EXTT15=
EXTT16=
EXTT17=
EXTT18=
EXTT19=
PLAYORDER=
